<?xml version="1.0" encoding="iso-8859-1"?>
<!-- Generator: Adobe Illustrator 19.0.0, SVG Export Plug-In . SVG Version: 6.00 Build 0)  -->
<svg version="1.1" id="Capa_1" xmlns="http://www.w3.org/2000/svg" xmlns:xlink="http://www.w3.org/1999/xlink" x="0px" y="0px"
	 viewBox="0 0 480.016 480.016" style="enable-background:new 0 0 480.016 480.016;" xml:space="preserve">
<path style="fill:#8C6239;" d="M160.008,88.016h232v384h-232V88.016z"/>
<path style="fill:#42210B;" d="M160.008,88.016l-72-80v384l72,80"/>
<path style="fill:#F2F2F2;" d="M200.008,386.52V120.016l16,8l16-8l16,8l16-8l16,8l16-8l16,8l16-8l16,8l16-8V271.52L200.008,386.52z"
	/>
<path style="fill:#754C24;" d="M192.008,472.016v-88l115.256-114.92c3.026-3.241,7.262-5.081,11.696-5.08h73.048v208
	L192.008,472.016z"/>
<path d="M163.568,80.016l-69.6-77.352c-2.947-3.292-8.005-3.571-11.297-0.624c-1.699,1.521-2.668,3.695-2.663,5.976v384
	c0.001,1.977,0.733,3.883,2.056,5.352l72,80c0.048,0.048,0.112,0.064,0.16,0.112c0.623,0.653,1.354,1.194,2.16,1.6
	c0.168,0.088,0.296,0.248,0.464,0.32c1.001,0.417,2.076,0.627,3.16,0.616h232c4.418,0,8-3.582,8-8v-384c0-4.418-3.582-8-8-8H163.568
	z M152.008,451.168l-56-62.224V28.864l56,62.224V451.168z M384.008,464.016h-184v-76.68l113.112-112.8
	c1.512-1.617,3.626-2.535,5.84-2.536h65.048V464.016z M208.008,356.768V132.96l4.424,2.216c2.251,1.125,4.901,1.125,7.152,0
	l12.424-6.216l12.424,6.216c2.251,1.125,4.901,1.125,7.152,0l12.424-6.216l12.424,6.216c2.251,1.125,4.901,1.125,7.152,0
	l12.424-6.216l12.424,6.216c2.251,1.125,4.901,1.125,7.152,0l12.424-6.216l12.424,6.216c2.251,1.125,4.901,1.125,7.152,0
	l4.424-2.216v123.056H318.96c-6.553-0.009-12.823,2.672-17.344,7.416L208.008,356.768z M384.008,256.016h-16v-136
	c0.002-4.418-3.578-8.002-7.996-8.004c-1.243-0.001-2.468,0.288-3.58,0.844l-12.424,6.216l-12.424-6.216
	c-2.251-1.125-4.901-1.125-7.152,0l-12.424,6.216l-12.424-6.216c-2.251-1.125-4.901-1.125-7.152,0l-12.424,6.216l-12.424-6.216
	c-2.251-1.125-4.901-1.125-7.152,0l-12.424,6.216l-12.424-6.216c-2.251-1.125-4.901-1.125-7.152,0l-12.424,6.216l-12.424-6.216
	c-3.952-1.975-8.757-0.372-10.732,3.58c-0.555,1.112-0.844,2.337-0.844,3.58V372.72l-5.648,5.6c-1.513,1.508-2.36,3.559-2.352,5.696
	v80h-16v-368h216L384.008,256.016z"/>
<path d="M320.008,230.544c12.473-4.393,19.023-18.066,14.629-30.539c-3.38-9.596-12.455-16.009-22.629-15.989c-4.418,0-8-3.582-8-8
	s3.582-8,8-8h16c4.418,0,8-3.582,8-8s-3.582-8-8-8h-8c0-4.418-3.582-8-8-8s-8,3.582-8,8v1.472
	c-12.473,4.393-19.023,18.066-14.629,30.539c3.38,9.596,12.455,16.009,22.629,15.989c4.418,0,8,3.582,8,8s-3.582,8-8,8h-16
	c-4.418,0-8,3.582-8,8s3.582,8,8,8h8c0,4.418,3.582,8,8,8s8-3.582,8-8V230.544z"/>
<path d="M264.008,152.016h-32c-4.418,0-8,3.582-8,8s3.582,8,8,8h32c4.418,0,8-3.582,8-8S268.426,152.016,264.008,152.016z"/>
<path d="M264.008,184.016h-32c-4.418,0-8,3.582-8,8s3.582,8,8,8h32c4.418,0,8-3.582,8-8S268.426,184.016,264.008,184.016z"/>
<path d="M264.008,216.016h-32c-4.418,0-8,3.582-8,8s3.582,8,8,8h32c4.418,0,8-3.582,8-8S268.426,216.016,264.008,216.016z"/>
<path d="M264.008,248.016h-32c-4.418,0-8,3.582-8,8c0,4.418,3.582,8,8,8h32c4.418,0,8-3.582,8-8
	C272.008,251.597,268.426,248.016,264.008,248.016z"/>
<path d="M248.008,280.016h-16c-4.418,0-8,3.582-8,8s3.582,8,8,8h16c4.418,0,8-3.582,8-8S252.426,280.016,248.008,280.016z"/>
</svg>
